<?xml version="1.0" encoding="UTF-8"?>
<svg version="1.1" xmlns="http://www.w3.org/2000/svg" width="905" height="224">
<path d="M0 0 C298.65 0 597.3 0 905 0 C905 73.92 905 147.84 905 224 C606.35 224 307.7 224 0 224 C0 150.08 0 76.16 0 0 Z " fill="#C7E7FE" transform="translate(0,0)"/>
<path d="M0 0 C9.57 0 19.14 0 29 0 C29.01458252 2.11414307 29.02916504 4.22828613 29.04418945 6.40649414 C29.09462509 13.40749713 29.16123583 20.40827979 29.23571491 27.4090662 C29.28035918 31.6518417 29.31962819 35.8945225 29.34643555 40.13745117 C29.37252813 44.23547728 29.41297207 48.33313779 29.46318626 52.43093681 C29.47981486 53.99090449 29.49135403 55.55093534 29.49761391 57.11097908 C29.5072991 59.30361996 29.53540857 61.49533395 29.56762695 63.68774414 C29.57873001 64.93350723 29.58983307 66.17927032 29.60127258 67.46278381 C30.05416715 71.48053105 31.0196404 76.0196404 34 79 C36.37124598 79.58488562 36.37124598 79.58488562 39 79 C42.71170768 74.53668239 43.50619158 71.35531671 43.54589844 65.61767578 C43.56140495 64.54834557 43.56140495 64.54834557 43.57722473 63.45741272 C43.60653461 61.11981218 43.6081493 58.78308192 43.609375 56.4453125 C43.62436474 54.8171932 43.64109356 53.18908907 43.65948486 51.56100464 C43.70308189 47.28999107 43.72314035 43.0191826 43.73822021 38.74798584 C43.75781902 34.38395092 43.79978587 30.0201366 43.83984375 25.65625 C43.91506317 17.10419749 43.96333553 8.5523048 44 0 C53.57 0 63.14 0 73 0 C73.06797748 9.99722185 73.12293202 19.99428832 73.15543652 29.99168968 C73.17104287 34.63468438 73.19218844 39.27751174 73.22631836 43.92041016 C73.25909226 48.40730035 73.27689079 52.89403031 73.28463173 57.38103104 C73.29014305 59.0865188 73.30090474 60.79199854 73.31719017 62.49741745 C73.4390701 75.79872615 72.37808235 87.09907936 64 98 C55.84317695 105.73351487 47.35084754 108.29372303 36.32421875 108.14453125 C24.35600356 107.62417407 15.95883601 105.52936757 7.625 96.625 C0.22687718 87.25950934 0.84083909 75.33623954 0.90234375 63.9609375 C0.9037587 62.95406891 0.90517365 61.94720032 0.90663147 60.90982056 C0.91217569 57.73151527 0.92471741 54.55328356 0.9375 51.375 C0.94252222 49.20442811 0.94708386 47.0338551 0.95117188 44.86328125 C0.96212677 39.57549624 0.97880824 34.28775338 1 29 C-0.98 29 -2.96 29 -5 29 C-5.12455566 30.16442627 -5.24911133 31.32885254 -5.37744141 32.52856445 C-5.89486134 36.64965071 -6.83833178 40.539487 -7.9609375 44.54296875 C-8.24778915 45.57844597 -8.24778915 45.57844597 -8.54043579 46.63484192 C-9.14665777 48.82057931 -9.7602573 51.00414529 -10.375 53.1875 C-11.17816329 56.05497344 -11.97770884 58.92342327 -12.7734375 61.79296875 C-12.96722488 62.4914946 -13.16101227 63.19002045 -13.360672 63.90971375 C-14.84393813 69.30993534 -16.13943625 74.74107685 -17.36523438 80.20581055 C-18.17488439 83.76982764 -19.10218256 87.28615216 -20.0625 90.8125 C-21.434414 95.86489011 -22.72960754 100.91843016 -24 106 C-34.89 106 -45.78 106 -57 106 C-57.94875 102.431875 -58.8975 98.86375 -59.875 95.1875 C-60.17003418 94.08688232 -60.46506836 92.98626465 -60.76904297 91.85229492 C-62.03269974 87.05236165 -63.17095981 82.28830022 -64.0078125 77.39453125 C-64.94586046 71.96195486 -66.40888663 66.77264759 -68 61.5 C-70.09885928 54.35256724 -71.86555134 47.37391629 -73 40 C-73.99 34.555 -73.99 34.555 -75 29 C-65.76 29 -56.52 29 -47 29 C-44.75244113 36.86645606 -44.75244113 36.86645606 -44.21875 40.92578125 C-44.09886719 41.80556641 -43.97898437 42.68535156 -43.85546875 43.59179688 C-43.73816406 44.48962891 -43.62085938 45.38746094 -43.5 46.3125 C-42.5789197 53.27121106 -41.45851765 60.13219575 -40 67 C-39.823479 65.854104 -39.64695801 64.70820801 -39.46508789 63.52758789 C-38.81134388 59.29093808 -38.15222808 55.05513881 -37.49145508 50.81958008 C-37.20579921 48.98354612 -36.92161609 47.14728241 -36.63891602 45.31079102 C-36.23316897 42.67663286 -35.82219543 40.04333654 -35.41015625 37.41015625 C-35.28407486 36.58411392 -35.15799347 35.75807159 -35.02809143 34.90699768 C-34.11387171 29.11387171 -34.11387171 29.11387171 -33 28 C-31.00035018 27.91241997 -28.9976389 27.89303424 -26.99609375 27.90234375 C-25.78115234 27.90556641 -24.56621094 27.90878906 -23.31445312 27.91210938 C-22.03505859 27.92048828 -20.75566406 27.92886719 -19.4375 27.9375 C-18.15423828 27.94201172 -16.87097656 27.94652344 -15.54882812 27.95117188 C-12.36583978 27.96300455 -9.18294238 27.97948932 -6 28 C-4.57863284 21.65506821 -3.20809001 15.30151167 -1.875 8.9375 C-1.25625 5.988125 -0.6375 3.03875 0 0 Z " fill="#7CA9FE" transform="translate(392,55)"/>
<path d="M0 0 C1.20970459 0.00523682 2.41940918 0.01047363 3.66577148 0.01586914 C4.97094727 0.0190918 6.27612305 0.02231445 7.62084961 0.02563477 C9.00952213 0.03399138 10.39819401 0.04245634 11.78686523 0.05102539 C13.17944179 0.05603873 14.57202005 0.06060193 15.96459961 0.06469727 C19.38456394 0.07653105 22.80444367 0.09301659 26.22436523 0.11352539 C27.49887364 2.46576536 28.76902421 4.8201947 30.03686523 7.17602539 C30.39329102 7.83280273 30.7497168 8.48958008 31.11694336 9.16625977 C31.46821289 9.82045898 31.81948242 10.4746582 32.18139648 11.14868164 C32.50084229 11.74044189 32.82028809 12.33220215 33.14941406 12.94189453 C34.63350152 15.94006804 35.90655593 19.038637 37.22436523 22.11352539 C39.53436523 26.73352539 41.84436523 31.35352539 44.22436523 36.11352539 C44.55436523 24.23352539 44.88436523 12.35352539 45.22436523 0.11352539 C54.79436523 0.11352539 64.36436523 0.11352539 74.22436523 0.11352539 C74.22436523 35.09352539 74.22436523 70.07352539 74.22436523 106.11352539 C65.97436523 106.11352539 57.72436523 106.11352539 49.22436523 106.11352539 C47.30624023 102.66915039 45.38811523 99.22477539 43.41186523 95.67602539 C42.81269287 94.60940674 42.21352051 93.54278809 41.59619141 92.44384766 C38.46942906 86.76841958 36.05692282 81.33136115 34.22436523 75.11352539 C33.56436523 75.11352539 32.90436523 75.11352539 32.22436523 75.11352539 C30.57436523 71.48352539 28.92436523 67.85352539 27.22436523 64.11352539 C26.89436523 77.97352539 26.56436523 91.83352539 26.22436523 106.11352539 C16.65436523 106.11352539 7.08436523 106.11352539 -2.77563477 106.11352539 C-2.77563477 80.70352539 -2.77563477 55.29352539 -2.77563477 29.11352539 C-4.75563477 29.11352539 -6.73563477 29.11352539 -8.77563477 29.11352539 C-7.81068925 22.28704916 -6.7233828 15.7358687 -4.77563477 9.11352539 C-4.56511915 7.65833621 -4.37805153 6.19958488 -4.21313477 4.73852539 C-3.65930717 0.14966821 -3.65930717 0.14966821 0 0 Z " fill="#7CA9FF" transform="translate(196.775634765625,54.886474609375)"/>
<path d="M0 0 C7.8822202 0.51599184 15.34458305 2.0921453 23 4 C22.23746012 10.24932109 20.86099489 16.30889596 19.4375 22.4375 C19.08655273 23.96407227 19.08655273 23.96407227 18.72851562 25.52148438 C18.15490697 28.01492607 17.57867103 30.50772922 17 33 C13.48883081 32.34570195 10.61157003 31.44753852 7.375 29.9375 C1.95816218 27.70417106 -3.1919463 27.16889747 -9 28 C-9.99 28.66 -10.98 29.32 -12 30 C-12.12944997 32.83538907 -12.12944997 32.83538907 -11 36 C-8.34665426 38.00354679 -5.92212433 39.45057543 -3 41 C20.68631666 53.79532406 20.68631666 53.79532406 24 63 C27.46277276 74.82195031 26.059973 84.88613822 20.33984375 95.74609375 C15.88806705 103.2349426 7.36258532 108.84510213 -1 111 C-16.07680092 112.67597521 -30.17541943 110.4454555 -43 102 C-42.37423415 96.25077626 -41.36011739 90.74287619 -40 85.125 C-39.82210938 84.36703125 -39.64421875 83.6090625 -39.4609375 82.828125 C-38.13632015 77.27264031 -38.13632015 77.27264031 -37 75 C-32.57297101 75.91881734 -28.72197676 77.92258241 -24.65625 79.84375 C-20.84516913 81.50269108 -17.5866099 82.16575411 -13.4375 82.25 C-12.67308594 82.27578125 -11.90867187 82.3015625 -11.12109375 82.328125 C-8.95740247 82.1265216 -8.95740247 82.1265216 -7.16015625 80.921875 C-5.7615848 78.89943281 -5.7615848 78.89943281 -5.58984375 75.71875 C-7.86991577 69.70592849 -12.9793827 68.188531 -18.5625 65.5 C-37.84095382 55.98234893 -37.84095382 55.98234893 -41.9375 46.8125 C-42.31777344 45.99394531 -42.69804687 45.17539063 -43.08984375 44.33203125 C-46.33329887 36.02154753 -45.53672363 27.40289701 -43 19 C-42.34 19 -41.68 19 -41 19 C-40.92523438 18.27167969 -40.85046875 17.54335937 -40.7734375 16.79296875 C-39.79796646 13.27043444 -38.25538021 11.81944812 -35.625 9.3125 C-34.43777344 8.16201172 -34.43777344 8.16201172 -33.2265625 6.98828125 C-25.67751078 0.24711051 -17.64649835 0.58522427 -8 1 C-5.30190311 1.23759361 -2.67745708 1.58000673 0 2 C0 1.34 0 0.68 0 0 Z " fill="#7DAAFF" transform="translate(519,52)"/>
<path d="M0 0 C291.39 0 582.78 0 883 0 C883 1.98 883 3.96 883 6 C591.61 6 300.22 6 0 6 C0 4.02 0 2.04 0 0 Z " fill="#F8FCFF" transform="translate(10,206)"/>
<path d="M0 0 C0 -0.66 0 -1.32 0 -2 C8.25 -2 16.5 -2 25 -2 C25 15.16 25 32.32 25 50 C26.65 50 28.3 50 30 50 C29.24468437 58.45953502 27.61080626 66.66582849 26 75 C17.09 75 8.18 75 -1 75 C-1.33 69.39 -1.66 63.78 -2 58 C-3.32 63.61 -4.64 69.22 -6 75 C-24.04137931 75.5204244 -24.04137931 75.5204244 -30.08203125 70.1484375 C-39.37910598 60.38564659 -42.18708253 50.7864958 -42.125 37.625 C-42.12886719 36.81289062 -42.13273438 36.00078125 -42.13671875 35.1640625 C-42.11867318 23.90362656 -40.46237155 14.38956377 -32.8828125 5.5234375 C-24.97679515 -1.99958939 -10.02046132 -6.25038676 0 0 Z " fill="#7CA9FF" transform="translate(765,86)"/>
<path d="M0 0 C8.58 0 17.16 0 26 0 C26.04898438 3.43019531 26.09796875 6.86039062 26.1484375 10.39453125 C26.202422 13.71073838 26.25973948 17.02687227 26.31738281 20.34301758 C26.35570416 22.65057944 26.39055141 24.95820168 26.421875 27.26586914 C26.46745682 30.57980963 26.52546288 33.89333327 26.5859375 37.20703125 C26.59748871 38.2414888 26.60903992 39.27594635 26.62094116 40.3417511 C26.64081085 41.3025206 26.66068054 42.2632901 26.68115234 43.25317383 C26.69447601 44.09922684 26.70779968 44.94527985 26.7215271 45.81697083 C26.87258289 48.29091009 26.87258289 48.29091009 29 51 C31.97 51.495 31.97 51.495 35 52 C35 34.84 35 17.68 35 0 C43.58 0 52.16 0 61 0 C61 17.49 61 34.98 61 53 C62.65 53 64.3 53 66 53 C65.4187243 61.51869561 63.74479814 69.65531324 62 78 C53.09 78 44.18 78 35 78 C34.67 72.72 34.34 67.44 34 62 C32.68 67.28 31.36 72.56 30 78 C27.12397545 78.10852923 24.25209168 78.1875515 21.375 78.25 C20.56675781 78.28351563 19.75851563 78.31703125 18.92578125 78.3515625 C13.43543594 78.44083641 10.31110742 77.72588922 6 74 C4.35546875 71.96484375 4.35546875 71.96484375 3.1875 69.9375 C2.78917969 69.26589844 2.39085938 68.59429687 1.98046875 67.90234375 C-0.25130888 63.57216165 -0.12936946 59.57536873 -0.09765625 54.83203125 C-0.0962413 54.03721848 -0.09482635 53.2424057 -0.09336853 52.42350769 C-0.08777378 49.88646675 -0.07522228 47.34951425 -0.0625 44.8125 C-0.05748432 43.09179815 -0.05292153 41.37109492 -0.04882812 39.65039062 C-0.03780607 35.4335597 -0.02054506 31.21679484 0 27 C-1.98 27 -3.96 27 -6 27 C-5.37554154 20.79848151 -4.08329407 15.00422731 -2.4375 9 C-1.633125 6.03 -0.82875 3.06 0 0 Z " fill="#044DAE" transform="translate(119,83)"/>
<path d="M0 0 C8.25 0 16.5 0 25 0 C23.7032797 11.08106441 21.16988479 21.32886111 18 32 C13.38 32 8.76 32 4 32 C4 58.07 4 84.14 4 111 C-5.57 111 -15.14 111 -25 111 C-25 84.93 -25 58.86 -25 32 C-29.62 32 -34.24 32 -39 32 C-38.25 20.625 -38.25 20.625 -36 15 C-35.34 11.37 -34.68 7.74 -34 4 C-22.78 4 -11.56 4 0 4 C0 2.68 0 1.36 0 0 Z " fill="#7DAAFF" transform="translate(627,51)"/>
<path d="M0 0 C8.87754026 -0.41884827 13.30129077 1.1412426 19.828125 6.9296875 C24.7424504 11.59880748 27.73315219 16.3057812 30.01953125 22.71484375 C30.35210938 23.63265625 30.6846875 24.55046875 31.02734375 25.49609375 C33.47982334 33.18494868 32.89453125 38.47060036 32.89453125 47.21484375 C20.35453125 47.21484375 7.81453125 47.21484375 -5.10546875 47.21484375 C-2.7226535 52.47496761 -2.7226535 52.47496761 0.89453125 56.21484375 C4.07240666 57.27413555 6.32042068 57.32943314 9.65625 57.3125 C10.77451172 57.30927734 11.89277344 57.30605469 13.04492188 57.30273438 C14.21216797 57.29435547 15.37941406 57.28597656 16.58203125 57.27734375 C17.76087891 57.27283203 18.93972656 57.26832031 20.15429688 57.26367188 C23.06775914 57.25187648 25.98111988 57.23541645 28.89453125 57.21484375 C27.91155063 64.66039907 26.92165339 71.97512182 24.89453125 79.21484375 C13.16124561 82.12220656 -1.53656303 83.29045327 -12.75 77.95703125 C-19.86793749 73.44782375 -24.22304545 67.66966821 -27.85546875 60.15234375 C-28.15839844 59.55357422 -28.46132813 58.95480469 -28.7734375 58.33789062 C-33.87678436 47.98376689 -33.85534392 33.56031707 -30.54296875 22.58984375 C-26.71231061 13.01987203 -20.20537613 6.05368339 -11.10546875 1.21484375 C-7.2488949 0.26650592 -3.93054682 0.27192462 0 0 Z " fill="#7DAAFF" transform="translate(685.10546875,81.78515625)"/>
<path d="M0 0 C9.24 0 18.48 0 28 0 C30.24755887 7.86645606 30.24755887 7.86645606 30.78125 11.92578125 C30.90113281 12.80556641 31.02101563 13.68535156 31.14453125 14.59179688 C31.26183594 15.48962891 31.37914062 16.38746094 31.5 17.3125 C31.73668556 19.10064637 31.97626233 20.88841245 32.21875 22.67578125 C32.32123047 23.45864502 32.42371094 24.24150879 32.52929688 25.0480957 C33.22139287 29.3884135 34.1380399 33.69019952 35 38 C36.98 25.46 38.96 12.92 41 0 C50.24 0 59.48 0 69 0 C69 6.24363735 68.76705205 9.8138682 67.13671875 15.54296875 C66.94406937 16.2332869 66.75141998 16.92360504 66.55293274 17.63484192 C65.94080019 19.82192846 65.31491529 22.00475397 64.6875 24.1875 C63.87441376 27.05473278 63.06707387 29.92355575 62.26171875 32.79296875 C61.96640007 33.84075752 61.96640007 33.84075752 61.66511536 34.90971375 C60.15756914 40.30707945 58.85637208 45.73671199 57.63256836 51.20581055 C56.82557532 54.77047102 55.89782548 58.28612263 54.9375 61.8125 C53.565586 66.86489011 52.27039246 71.91843016 51 77 C40.11 77 29.22 77 18 77 C17.05125 73.431875 16.1025 69.86375 15.125 66.1875 C14.82996582 65.08688232 14.53493164 63.98626465 14.23095703 62.85229492 C12.96730026 58.05236165 11.82904019 53.28830022 10.9921875 48.39453125 C10.05413954 42.96195486 8.59111337 37.77264759 7 32.5 C4.90114072 25.35256724 3.13444866 18.37391629 2 11 C1.34 7.37 0.68 3.74 0 0 Z " fill="#034CAE" transform="translate(317,84)"/>
<path d="M0 0 C8.91 0 17.82 0 27 0 C27 17.16 27 34.32 27 52 C28.65 52 30.3 52 32 52 C31.80664062 52.88300781 31.61328125 53.76601562 31.4140625 54.67578125 C29.94894864 61.42836048 28.56410825 68.17180568 27.4296875 74.98828125 C27 77 27 77 26 78 C17.42 78 8.84 78 0 78 C0 60.84 0 43.68 0 26 C-1.65 26 -3.3 26 -5 26 C-5.47828096 16.91266177 -2.58933564 8.6311188 0 0 Z " fill="#064EAF" transform="translate(285,84)"/>
<path d="M0 0 C8.58 0 17.16 0 26 0 C26 17.16 26 34.32 26 52 C27.65 52 29.3 52 31 52 C30.67812521 60.93202536 28.85368564 68.53099747 26 77 C17.42 77 8.84 77 0 77 C0 60.17 0 43.34 0 26 C-1.98 26 -3.96 26 -6 26 C-5.86464844 25.34 -5.72929688 24.68 -5.58984375 24 C-5.14416414 21.7332322 -4.72412442 19.46140248 -4.31640625 17.1875 C-4.13174805 16.16269531 -4.13174805 16.16269531 -3.94335938 15.1171875 C-3.68957466 13.70640476 -3.43956926 12.2949369 -3.19335938 10.8828125 C-2.47570385 6.94128477 -1.50741464 3.76853661 0 0 Z " fill="#024BAD" transform="translate(554,84)"/>
<path d="M0 0 C8.58 0 17.16 0 26 0 C25.34298774 6.57012262 24.61902501 12.35879265 22.9375 18.625 C22.298125 21.05875 21.65875 23.4925 21 26 C12.42 26 3.84 26 -5 26 C-3.875 17 -3.875 17 -3.02734375 13.28125 C-2.86741943 12.57033203 -2.70749512 11.85941406 -2.54272461 11.12695312 C-2.34300049 10.26005859 -2.14327637 9.39316406 -1.9375 8.5 C-1.298125 5.695 -0.65875 2.89 0 0 Z " fill="#074FAF" transform="translate(558,52)"/>
<path d="M0 0 C8.25 0 16.5 0 25 0 C24.28762025 5.69903797 23.49412062 11.2926666 22.5 16.9375 C22.36980469 17.70384766 22.23960937 18.47019531 22.10546875 19.25976562 C21.11977209 24.88022791 21.11977209 24.88022791 20 26 C18.07332493 26.08748207 16.14348139 26.10697334 14.21484375 26.09765625 C13.04501953 26.09443359 11.87519531 26.09121094 10.66992188 26.08789062 C8.82237305 26.07532227 8.82237305 26.07532227 6.9375 26.0625 C5.08415039 26.05573242 5.08415039 26.05573242 3.19335938 26.04882812 C0.12885883 26.03699608 -2.93554721 26.02051173 -6 26 C-5.21709398 21.28584402 -4.41311234 16.57735953 -3.5625 11.875 C-3.44068359 11.17246094 -3.31886719 10.46992187 -3.19335938 9.74609375 C-2.52064632 6.05837139 -1.69931188 3.39862376 0 0 Z " fill="#0750B0" transform="translate(290,52)"/>
<path d="M0 0 C2.875 0.625 2.875 0.625 4.53637695 2.31152344 C6.19373714 5.17585777 6.22054562 6.9708075 6.16796875 10.265625 C6.15830078 11.33554688 6.14863281 12.40546875 6.13867188 13.5078125 C6.11353516 14.61898437 6.08839844 15.73015625 6.0625 16.875 C6.04896484 18.00164062 6.03542969 19.12828125 6.02148438 20.2890625 C5.98615645 23.06819264 5.9368252 25.84635363 5.875 28.625 C-1.47566777 28.93634027 -1.47566777 28.93634027 -4.21875 27.62109375 C-8.94791412 22.37960352 -8.93649424 16.97492285 -8.64453125 10.1171875 C-8.18005913 6.99509671 -7.84102073 5.19416666 -6 2.6875 C-3.125 0.625 -3.125 0.625 0 0 Z " fill="#C4E5FF" transform="translate(758.125,107.375)"/>
<path d="M0 0 C2.5 0.625 2.5 0.625 4.8125 2.75 C6.5 5.625 6.5 5.625 6.5 11.625 C2.21 11.625 -2.08 11.625 -6.5 11.625 C-6.5 5.625 -6.5 5.625 -4.8125 2.75 C-2.5 0.625 -2.5 0.625 0 0 Z " fill="#C3E4FF" transform="translate(685.5,101.375)"/>
</svg>
